<?xml version="1.0" standalone="no"?>
<!DOCTYPE svg PUBLIC "-//W3C//DTD SVG 20010904//EN"
 "http://www.w3.org/TR/2001/REC-SVG-20010904/DTD/svg10.dtd">
<svg version="1.0" xmlns="http://www.w3.org/2000/svg"
 width="351.000000pt" height="351.000000pt" viewBox="0 0 351.000000 351.000000"
 preserveAspectRatio="xMidYMid meet">
<metadata>
Created by potrace 1.11, written by Peter Selinger 2001-2013
</metadata>
<g transform="translate(0.000000,351.000000) scale(0.100000,-0.100000)"
fill="#000000" stroke="none">
<path d="M1622 3294 c-100 -22 -148 -48 -228 -126 -128 -124 -164 -204 -164
-362 0 -73 6 -108 28 -173 l28 -83 -22 0 c-30 0 -48 -47 -40 -105 6 -40 4 -49
-22 -82 -32 -42 -95 -184 -111 -253 -42 -174 -68 -647 -39 -703 6 -12 14 -29
18 -37 4 -8 3 -33 -2 -55 -11 -48 -4 -104 21 -161 15 -33 25 -42 51 -48 46 -9
63 8 56 56 -5 30 -3 38 10 38 13 0 15 13 13 80 -1 44 1 83 5 87 3 3 7 16 8 27
1 12 4 -6 7 -39 5 -50 9 -60 25 -60 12 0 23 -11 30 -30 18 -50 36 -76 48 -69
7 4 8 3 4 -5 -4 -6 9 -42 30 -79 21 -37 59 -109 86 -161 l47 -94 -42 -47 c-23
-26 -71 -81 -107 -123 -36 -43 -72 -80 -81 -82 -9 -3 -24 -14 -33 -24 -15 -16
-15 -19 -1 -31 8 -7 15 -18 15 -24 0 -15 85 -154 112 -183 20 -21 20 -21 41
-2 11 10 31 19 44 19 l24 0 -23 31 c-16 21 -23 45 -24 77 -1 45 2 49 58 97 32
28 63 51 68 53 6 2 10 -13 10 -32 0 -20 11 -89 26 -154 14 -64 28 -150 32
-191 4 -48 12 -75 20 -77 7 -1 8 0 2 3 -5 2 -10 11 -10 18 0 11 11 10 54 -5
55 -19 115 -25 194 -22 40 2 42 4 40 30 -3 36 8 52 35 53 12 1 -8 5 -45 9 -39
5 -74 15 -84 24 -8 9 -19 14 -23 11 -8 -4 -21 214 -21 338 0 49 3 57 19 57 26
0 44 23 29 38 -7 7 -21 12 -31 12 -17 0 -18 6 -14 53 3 28 12 76 21 105 20 71
55 301 63 421 l6 96 14 -60 c8 -35 11 -78 8 -104 -5 -31 -3 -46 7 -52 22 -14
85 -10 98 6 12 14 15 13 34 -4 31 -29 81 -47 168 -61 51 -8 83 -19 94 -31 16
-18 15 -19 -16 -25 -38 -8 -79 -63 -57 -76 8 -4 84 -10 171 -14 135 -6 159
-10 170 -25 7 -11 47 -26 101 -40 86 -22 96 -22 235 -11 80 7 164 12 187 12
79 0 88 13 49 71 -20 29 -36 39 -85 53 -63 18 -73 28 -44 44 11 7 29 4 57 -7
42 -18 97 -13 111 9 3 6 14 10 24 10 22 0 55 35 46 49 -3 6 -13 11 -21 11 -11
0 -13 6 -9 20 4 13 1 22 -9 26 -22 8 -43 -11 -51 -46 -8 -36 -27 -53 -56 -48
-20 3 -17 7 25 48 52 50 77 107 55 121 -20 13 -29 11 -35 -6 -4 -10 -13 -13
-25 -10 -23 8 -39 -23 -18 -35 7 -5 11 -12 7 -15 -8 -9 -38 24 -38 41 0 9 5
24 11 35 16 30 4 53 -20 40 -14 -8 -20 -7 -25 4 -3 8 -15 15 -26 15 -15 0 -20
-7 -20 -29 0 -16 7 -34 15 -41 8 -7 15 -20 15 -29 0 -10 7 -26 15 -37 24 -32
17 -49 -31 -72 -25 -12 -53 -35 -62 -52 -27 -48 -71 -42 -135 19 -52 49 -75
57 -164 63 -18 1 -35 8 -37 15 -9 22 12 63 38 74 31 14 107 -3 144 -32 19 -15
33 -18 61 -13 42 8 57 24 37 40 -12 8 -8 14 19 28 41 23 52 46 29 63 -15 11
-22 10 -41 -2 -21 -14 -23 -14 -23 1 0 28 -35 11 -38 -19 -4 -32 -23 -34 -92
-13 l-45 15 37 0 c43 1 59 18 33 38 -38 27 -125 5 -125 -33 0 -8 -7 -14 -15
-14 -18 0 -18 1 -5 34 12 31 43 52 97 64 38 9 46 7 70 -14 16 -13 35 -24 44
-24 22 0 69 38 69 56 0 16 -33 19 -61 4 -10 -6 -19 -7 -19 -2 0 13 31 39 56
46 23 7 51 76 39 96 -4 6 -18 10 -31 7 -21 -4 -24 0 -24 23 0 39 -23 56 -45
33 -10 -9 -27 -17 -39 -18 -29 0 -28 -37 2 -50 23 -10 30 -47 13 -74 -7 -11
-12 -11 -31 2 -12 8 -29 13 -39 10 -15 -4 -17 1 -13 25 5 38 -12 48 -45 27
-26 -17 -34 -14 -46 20 -5 15 -37 -14 -37 -34 0 -17 -38 -46 -48 -37 -3 3 5
17 17 30 25 27 20 51 -9 43 -11 -3 -21 2 -24 10 -5 12 -9 13 -21 3 -19 -16
-19 -79 0 -104 8 -11 15 -37 15 -59 0 -21 6 -62 14 -90 8 -29 17 -80 19 -114
5 -56 3 -63 -13 -63 -43 0 -119 -22 -139 -41 -11 -11 -21 -16 -21 -11 0 5 -20
20 -45 33 -81 43 -66 89 28 89 40 0 54 5 77 28 39 39 66 130 54 179 -12 48
-38 51 -42 5 -3 -28 -6 -31 -27 -26 -33 8 -40 -11 -16 -45 12 -16 21 -36 21
-45 0 -14 -47 -46 -68 -46 -13 0 -24 78 -23 156 1 45 -2 63 -13 67 -15 6 -29
-6 -39 -33 -3 -10 -6 -7 -6 8 -1 26 -27 40 -43 24 -8 -8 -7 -22 4 -51 15 -37
15 -40 -4 -44 -11 -3 -21 0 -25 9 -8 22 -33 17 -33 -7 0 -30 62 -89 94 -89 35
0 33 -21 -4 -58 -17 -17 -30 -40 -30 -51 0 -12 -5 -21 -11 -21 -8 0 -10 19 -5
64 l6 65 -40 32 c-32 26 -38 37 -34 55 7 28 -22 46 -36 23 -7 -10 -11 -7 -19
14 -15 38 -41 36 -41 -4 0 -22 9 -40 30 -59 19 -18 26 -31 20 -35 -15 -9 -37
11 -44 41 -4 16 -12 24 -20 21 -10 -4 -15 21 -20 112 -3 65 -13 151 -21 192
-7 41 -18 126 -24 189 -6 63 -24 165 -40 225 -16 61 -27 113 -23 116 4 3 27
11 52 18 90 25 207 106 257 176 16 22 42 69 58 105 29 62 30 71 30 205 0 166
-15 219 -94 326 -75 102 -193 185 -306 215 -63 17 -211 16 -293 -2z m300 -14
c131 -40 279 -164 336 -280 49 -101 66 -261 38 -368 -21 -82 -60 -162 -101
-205 -60 -64 -188 -139 -258 -152 -33 -7 -37 -5 -43 20 -4 15 -23 48 -42 73
-32 41 -37 56 -40 115 -2 37 0 67 5 67 20 0 44 -27 70 -80 19 -36 38 -60 58
-69 17 -8 42 -20 56 -28 23 -11 33 -10 72 7 42 19 58 36 56 63 0 7 -4 2 -9
-11 -11 -26 -52 -47 -74 -39 -18 7 -22 62 -6 72 15 9 12 33 -9 63 -11 16 -24
60 -30 106 -13 89 -16 96 -39 95 -15 -1 -15 -2 -1 -6 32 -8 25 -93 -7 -93 -4
0 -3 5 4 12 16 16 15 29 -2 22 -8 -3 -16 2 -19 13 -4 14 -5 14 -6 -4 -1 -17
-7 -23 -24 -23 -13 0 -27 -3 -31 -7 -15 -15 -36 -10 -36 8 0 25 -20 25 -27 -1
-3 -11 -9 -17 -14 -14 -13 8 9 44 26 44 8 0 15 3 15 6 0 10 -26 32 -46 38 -23
6 25 -1 61 -10 20 -5 24 -3 19 10 -4 9 0 18 9 22 9 3 13 12 10 20 -3 8 -10 11
-15 8 -11 -7 -87 14 -103 28 -16 14 -55 9 -55 -8 0 -11 -6 -14 -20 -9 -32 10
-23 -3 13 -19 17 -8 53 -14 80 -13 27 1 47 -2 47 -8 0 -6 -16 -9 -38 -7 l-39
4 0 -54 c0 -29 2 -42 5 -29 4 24 32 61 32 42 0 -5 -4 -12 -9 -15 -5 -3 -11
-19 -13 -35 -2 -17 -1 -28 4 -25 4 3 8 1 8 -4 0 -6 -16 -10 -35 -10 -49 0 -99
56 -90 100 5 21 4 28 -4 24 -7 -5 -11 1 -11 15 0 18 2 19 15 9 13 -11 14 -10
8 6 -3 10 -11 22 -16 25 -5 4 -3 15 4 27 11 17 11 24 1 34 -36 36 -50 -99 -18
-177 9 -21 15 -40 12 -42 -2 -2 -9 11 -17 29 -20 50 -36 63 -35 28 1 -15 4
-26 7 -24 7 4 44 -78 41 -92 -1 -7 4 -14 13 -18 8 -3 14 -2 14 2 -3 18 3 20
27 8 27 -15 64 -11 64 6 0 6 7 4 16 -3 12 -10 15 -26 12 -72 -3 -33 -10 -62
-17 -67 -9 -5 -10 -10 -2 -14 15 -9 14 -43 -1 -52 -8 -5 -9 -2 -5 9 3 9 2 19
-3 22 -4 3 -7 -6 -6 -20 3 -19 -4 -28 -24 -38 -34 -17 -116 -13 -160 7 -21 10
-26 15 -12 12 12 -2 22 0 22 4 0 5 8 11 18 13 9 2 1 3 -18 1 -19 -2 -29 -1
-22 2 6 3 12 14 12 25 0 19 -14 24 -54 21 -13 -2 -16 2 -12 14 8 21 -3 37 -17
26 -15 -11 -48 -12 -41 -1 2 5 12 5 20 2 14 -5 15 -3 5 15 -9 17 -8 28 4 49
l15 28 -6 -37 c-4 -25 -2 -38 5 -38 6 0 11 5 11 10 0 7 6 7 20 0 19 -10 20 -8
16 32 -2 29 -9 44 -22 49 -18 7 -18 8 1 9 11 2 26 2 33 1 10 -2 11 7 6 36 -14
76 -20 88 -42 87 -12 0 -18 4 -15 9 3 5 14 6 25 4 14 -4 22 1 28 19 5 13 14
24 20 24 5 0 11 17 11 38 l2 37 7 -35 8 -35 -1 38 c-2 47 -21 54 -25 9 -2 -18
-10 -36 -18 -39 -8 -3 -14 -14 -14 -24 0 -10 -4 -19 -9 -19 -5 0 -8 11 -7 25
0 16 7 25 18 25 18 0 18 20 0 43 -10 12 -9 23 7 58 10 24 28 52 39 63 12 10
19 22 17 26 -3 4 2 13 10 20 8 7 15 19 15 28 0 12 4 12 21 -4 11 -10 18 -26
16 -36 -3 -10 -1 -21 4 -24 5 -3 9 -16 9 -30 0 -14 -4 -23 -9 -20 -5 3 -15 -1
-22 -10 -18 -21 6 -36 46 -28 21 4 26 2 16 -4 -11 -8 -7 -14 19 -27 18 -9 29
-12 26 -6 -4 7 1 11 12 11 11 0 23 -7 26 -16 3 -9 11 -12 18 -8 8 5 9 2 5 -10
-4 -11 -3 -15 4 -10 6 3 9 15 6 25 -3 10 -1 22 5 25 6 4 5 10 -3 15 -9 6 -10
9 -2 9 8 0 8 7 0 30 -6 17 -15 30 -19 30 -4 0 -8 7 -8 15 0 8 -7 15 -15 15 -8
0 -15 8 -15 18 0 14 2 15 10 2 5 -8 10 -11 10 -7 0 21 50 -49 50 -70 0 -14 13
-38 30 -55 17 -16 28 -33 25 -38 -3 -4 3 -14 12 -21 12 -10 14 -10 9 -1 -9 16
16 16 32 0 9 -9 12 -9 12 0 0 7 -4 12 -10 12 -5 0 -14 15 -19 33 -5 17 -10 24
-10 15 -3 -50 -67 21 -76 85 -4 26 -3 47 1 47 13 -1 64 -76 64 -95 0 -9 5 -13
11 -9 6 3 8 17 4 32 -5 22 -4 24 9 13 9 -7 14 -23 13 -34 -2 -17 3 -21 19 -19
13 2 24 -4 28 -13 13 -35 -24 -49 -44 -17 -8 11 -10 12 -7 2 2 -8 14 -21 28
-27 13 -7 18 -13 12 -13 -7 0 -13 -7 -13 -15 0 -8 -4 -15 -10 -15 -17 0 -11
-20 8 -27 9 -3 27 -18 39 -32 25 -30 31 -17 7 17 -8 12 -11 22 -5 22 11 0 25
-36 26 -65 0 -11 6 -19 13 -17 8 1 11 -1 9 -5 -3 -5 6 -28 19 -53 40 -74 21
-1 -26 98 -25 53 -40 98 -40 123 0 31 -7 46 -35 75 -19 19 -35 39 -36 42 0 4
-2 34 -4 66 -4 45 -10 65 -28 85 -14 14 -22 32 -20 39 3 8 -4 16 -16 19 -11 3
-32 25 -46 49 -32 54 -55 58 -55 10 0 -37 -21 -66 -48 -66 -10 0 -28 19 -42
45 -14 25 -28 45 -32 45 -15 0 -28 -41 -32 -97 -4 -55 -6 -59 -35 -68 -20 -6
-34 -18 -37 -31 -3 -13 -11 -25 -18 -27 -7 -3 -19 -27 -26 -54 -7 -26 -19 -51
-26 -56 -7 -4 -16 -24 -19 -45 -4 -20 -9 -44 -12 -52 -4 -8 -7 -35 -8 -60 -2
-44 -23 -171 -29 -178 -2 -1 -23 -7 -47 -12 l-44 -9 53 5 c42 4 52 2 52 -10 0
-10 -14 -17 -37 -21 -58 -10 -63 -15 -13 -13 41 2 45 0 42 -19 -7 -50 95 -152
169 -168 16 -4 27 -10 25 -13 -2 -4 25 -5 60 -4 54 3 69 8 94 32 16 15 30 38
30 51 0 30 15 13 24 -26 5 -23 4 -26 -4 -15 -8 11 -9 5 -5 -25 4 -31 3 -36 -5
-20 -9 17 -10 16 -5 -7 4 -20 -1 -34 -15 -48 -24 -24 -30 -25 -30 -5 0 8 -6
15 -14 15 -7 0 -19 6 -25 14 -16 19 -121 17 -114 -1 3 -6 11 -9 18 -7 8 4 15
-3 17 -18 4 -30 57 -38 83 -12 14 14 18 15 25 4 5 -8 7 -17 4 -22 -5 -8 -69
-22 -96 -21 -10 0 -34 1 -53 2 -27 1 -38 6 -45 24 -6 15 -9 17 -9 5 -1 -13 -5
-14 -24 -5 -18 8 -22 17 -19 39 5 34 16 36 36 6 9 -13 16 -17 16 -9 0 8 -25
39 -55 69 -30 31 -55 61 -55 69 0 7 -15 19 -32 26 -44 18 -65 44 -50 59 9 9
12 8 12 -4 0 -9 4 -19 9 -22 4 -3 6 6 3 19 -5 26 -16 32 -27 15 -3 -5 -10 -10
-14 -10 -9 0 -35 51 -33 63 1 4 -2 7 -6 7 -27 0 -72 166 -72 261 0 90 20 166
63 234 39 64 155 176 211 203 103 52 295 67 408 32z m-112 -71 c0 -5 -4 -9
-10 -9 -5 0 -10 7 -10 16 0 8 5 12 10 9 6 -3 10 -10 10 -16z m-139 -10 c8 -15
8 -19 0 -15 -19 12 -23 -22 -7 -55 18 -36 21 -63 6 -54 -5 3 -10 0 -10 -7 -1
-7 -7 1 -14 17 -7 17 -9 31 -5 33 4 2 5 19 2 38 -4 21 -2 34 5 34 6 0 9 7 6
15 -9 23 4 18 17 -6z m159 -24 c0 -2 -7 -5 -15 -9 -9 -3 -15 0 -15 9 0 9 6 12
15 9 8 -4 15 -7 15 -9z m-110 -75 c0 -11 -2 -20 -4 -20 -2 0 -6 9 -9 20 -3 11
-1 20 4 20 5 0 9 -9 9 -20z m-15 -70 c9 0 12 6 9 15 -4 8 -1 15 5 15 13 0 14
-20 1 -40 -7 -12 -12 -12 -29 4 -12 11 -21 24 -21 30 0 6 5 3 11 -6 5 -10 16
-18 24 -18z m222 -82 c-3 -8 -6 -5 -6 6 -1 11 2 17 5 13 3 -3 4 -12 1 -19z
m-17 2 c0 -5 -2 -10 -4 -10 -3 0 -8 5 -11 10 -3 6 -1 10 4 10 6 0 11 -4 11
-10z m-395 -300 c3 -5 1 -10 -4 -10 -6 0 -11 5 -11 10 0 6 2 10 4 10 3 0 8 -4
11 -10z m449 -37 c26 10 23 -27 -4 -55 -30 -33 -45 -36 -29 -7 7 15 8 19 0 15
-7 -5 -10 7 -7 36 5 56 6 57 17 29 6 -14 15 -21 23 -18z m-54 -30 c0 -18 -35
-16 -51 3 -12 14 -14 14 -20 -3 -7 -17 -8 -17 -8 2 -1 15 -3 17 -10 6 -6 -9
-11 -10 -15 -2 -5 7 4 14 24 17 17 4 33 11 36 16 7 12 44 -20 44 -39z m-422
-20 c-8 -10 -18 -26 -21 -35 -4 -10 -11 -18 -17 -18 -7 0 -7 7 1 23 16 30 41
58 47 52 3 -3 -2 -13 -10 -22z m397 -23 c3 -6 -1 -7 -9 -4 -18 7 -21 14 -7 14
6 0 13 -4 16 -10z m-579 -27 c-3 -8 -2 -12 3 -9 11 7 43 -39 34 -48 -13 -12
-23 -5 -24 17 -1 17 -2 18 -6 4 -6 -24 -83 -22 -83 3 0 23 21 48 45 52 27 6
38 -1 31 -19z m681 -35 c3 -15 10 -26 15 -25 6 1 13 -5 15 -13 4 -12 3 -12 -5
-2 -5 8 -13 13 -18 12 -5 -1 -13 7 -19 17 -15 27 -27 34 -52 30 -13 -2 -23 0
-23 5 0 4 18 7 41 6 35 -3 41 -7 46 -30z m-27 -52 c-13 -13 -45 17 -35 34 5 8
12 6 26 -6 13 -12 16 -21 9 -28z m-459 11 c-10 -9 -11 -8 -5 6 3 10 9 15 12
12 3 -3 0 -11 -7 -18z m-52 -71 c13 -15 5 -66 -10 -66 -4 0 -13 8 -18 18 -10
16 -10 16 -11 0 0 -24 -17 -31 -39 -16 -16 12 -17 16 -6 32 8 10 18 15 24 11
16 -9 14 1 -9 45 -11 22 -20 42 -20 45 0 8 72 -48 89 -69z m41 -51 c7 -9 10
-25 6 -41 -7 -25 -8 -25 -25 -10 -12 11 -16 25 -13 41 5 29 14 31 32 10z m385
-15 c9 -16 12 -30 7 -30 -8 0 -32 42 -32 55 0 13 11 2 25 -25z m-25 -31 c0 -5
-7 -9 -15 -9 -9 0 -12 6 -9 15 6 15 24 11 24 -6z m747 -764 c0 -8 -6 -16 -14
-19 -11 -4 -11 -1 -3 14 13 24 17 25 17 5z m76 -24 c-3 -11 -18 -25 -34 -32
-17 -6 -36 -20 -43 -31 -12 -16 -14 -17 -19 -3 -11 26 4 47 47 66 52 23 55 23
49 0z m167 16 c0 -2 -9 -14 -20 -27 -22 -26 -27 -20 -8 10 11 17 28 27 28 17z
m-125 -17 c-3 -5 -12 -10 -18 -10 -7 0 -6 4 3 10 19 12 23 12 15 0z m-870
-106 c12 -9 14 -28 9 -100 -3 -49 -10 -118 -15 -154 -5 -36 -14 -96 -20 -135
-10 -65 -32 -130 -28 -80 3 28 -15 72 -86 216 -33 66 -41 89 -32 98 9 9 7 10
-8 5 -19 -7 -19 -6 -3 12 11 13 19 47 24 107 l7 87 28 0 c15 0 31 5 34 10 3 6
18 8 33 5 15 -3 21 -2 13 1 -11 5 -11 8 0 15 11 6 16 -2 21 -34 4 -23 14 -47
23 -53z m-227 22 c2 -15 0 -35 -4 -44 -13 -31 -15 -57 -5 -77 21 -45 124 -261
131 -276 24 -48 32 -115 31 -264 -1 -88 3 -213 9 -279 9 -109 9 -120 -7 -132
-20 -15 -89 -19 -97 -5 -12 19 -55 304 -60 395 -4 71 -10 104 -22 117 -9 10
-13 23 -9 29 3 6 3 9 -2 8 -26 -8 -160 208 -149 239 3 8 2 12 -3 8 -8 -5 -31
21 -56 64 -5 10 -4 12 4 7 6 -4 0 9 -14 30 -31 46 -31 54 0 54 28 0 118 44
109 52 -3 3 11 23 31 43 19 21 35 41 35 44 0 18 24 28 48 22 20 -5 28 -15 30
-35z m1042 31 c0 -2 -9 -12 -19 -21 -14 -13 -21 -14 -27 -5 -4 7 -3 10 3 6 6
-4 16 0 23 8 12 14 20 19 20 12z m-991 -49 c-2 -57 -8 -78 -23 -78 -7 0 -11
12 -10 28 1 15 2 42 3 60 1 22 6 32 16 32 12 0 15 -10 14 -42z m645 6 c3 -8 2
-12 -4 -9 -6 3 -10 10 -10 16 0 14 7 11 14 -7z m-139 -34 c3 -5 1 -10 -4 -10
-6 0 -11 5 -11 10 0 6 2 10 4 10 3 0 8 -4 11 -10z m-200 -20 c3 -5 1 -10 -4
-10 -6 0 -11 5 -11 10 0 6 2 10 4 10 3 0 8 -4 11 -10z m-561 -20 c-5 -5 -25
-12 -44 -15 -35 -5 -35 -5 5 9 51 18 51 18 39 6z m761 -58 c1 -53 -2 -62 -17
-62 -11 0 -20 10 -24 28 -10 46 -13 52 -28 52 -8 0 -17 -10 -19 -22 -2 -13 -5
-4 -6 19 -1 41 -1 42 37 46 56 5 57 5 57 -61z m-858 16 c-3 -8 -6 -5 -6 6 -1
11 2 17 5 13 3 -3 4 -12 1 -19z m734 -15 c-12 -20 -14 -14 -5 12 4 9 9 14 11
11 3 -2 0 -13 -6 -23z m1013 -19 c3 -8 2 -12 -4 -9 -6 3 -10 10 -10 16 0 14 7
11 14 -7z m106 -4 c0 -5 -5 -10 -11 -10 -5 0 -7 5 -4 10 3 6 8 10 11 10 2 0 4
-4 4 -10z m-187 -145 c-3 -9 -8 -14 -10 -11 -3 3 -2 9 2 15 9 16 15 13 8 -4z
m-1464 -191 c12 -19 16 -32 11 -29 -11 7 -43 65 -36 65 2 0 13 -16 25 -36z
m55 -70 c14 -20 20 -54 27 -147 5 -67 13 -147 18 -177 28 -156 31 -183 27
-187 -3 -3 -9 12 -14 33 -23 94 -42 191 -41 209 0 11 -2 34 -5 50 -3 17 -6 66
-7 110 -1 61 -6 87 -21 108 -24 34 -10 35 16 1z m-41 3 c5 -14 -27 -56 -124
-160 -44 -48 -57 -57 -62 -44 -4 12 20 47 81 117 48 54 90 99 93 100 4 0 9 -6
12 -13z m27 -124 c0 -51 -3 -64 -19 -72 -10 -6 -22 -7 -26 -3 -5 4 -5 2 -2 -5
6 -10 -61 -76 -78 -75 -4 0 -20 10 -37 22 l-30 22 28 29 c15 15 31 26 36 23 5
-3 7 -1 6 4 -5 16 106 140 114 128 4 -6 8 -39 8 -73z m-222 -114 c3 -11 1 -11
-7 1 -6 8 -11 11 -11 5 1 -5 7 -19 15 -29 17 -23 19 -36 5 -36 -10 0 -40 52
-40 69 0 14 33 6 38 -10z m71 -55 c14 -12 -19 -1 -35 12 -18 14 -18 14 6 3 14
-6 27 -13 29 -15z m336 -249 c6 -2 -10 -4 -35 -4 -25 0 -51 3 -59 8 -13 8 69
5 94 -4z"/>
<path d="M1557 2853 c-4 -3 -7 -11 -7 -17 0 -6 5 -5 12 2 6 6 9 14 7 17 -3 3
-9 2 -12 -2z"/>
<path d="M1856 2802 c-2 -4 4 -8 14 -8 10 0 16 4 14 8 -3 4 -9 8 -14 8 -5 0
-11 -4 -14 -8z"/>
<path d="M1580 2730 c-6 -11 -7 -20 -2 -20 6 0 12 9 15 20 3 11 3 20 1 20 -2
0 -8 -9 -14 -20z"/>
<path d="M1712 2728 c-16 -16 -15 -28 2 -28 19 0 27 13 17 28 -5 9 -10 9 -19
0z"/>
<path d="M1951 2694 c0 -11 3 -14 6 -6 3 7 2 16 -1 19 -3 4 -6 -2 -5 -13z"/>
<path d="M1600 2630 c-9 -6 -10 -10 -3 -10 6 0 15 5 18 10 8 12 4 12 -15 0z"/>
<path d="M1605 2590 c-3 -5 1 -10 10 -10 9 0 13 5 10 10 -3 6 -8 10 -10 10 -2
0 -7 -4 -10 -10z"/>
<path d="M2123 2510 c0 -25 2 -35 4 -22 2 12 2 32 0 45 -2 12 -4 2 -4 -23z"/>
<path d="M1930 2452 c0 -12 19 -26 26 -19 2 2 -2 10 -11 17 -9 8 -15 8 -15 2z"/>
<path d="M569 2375 c-1 -28 -3 -41 -6 -30 -2 11 -6 29 -8 40 -3 13 -13 21 -31
22 -26 1 -26 0 -21 -49 6 -47 5 -50 -9 -32 -14 18 -15 15 -10 -31 4 -49 4 -49
-9 -20 -8 17 -14 36 -15 43 0 6 -4 12 -10 12 -13 0 -13 -66 1 -92 6 -11 9 -22
6 -24 -2 -3 -12 11 -21 30 -21 44 -33 52 -41 26 -8 -26 15 -64 65 -107 51 -44
85 -134 75 -200 -9 -72 -25 -90 -22 -26 2 57 -14 76 -24 28 -6 -31 -15 -22
-21 23 -5 34 -23 22 -23 -16 0 -28 -2 -30 -12 -15 -7 9 -13 20 -13 25 0 4 -4
8 -10 8 -5 0 -10 -12 -10 -26 0 -20 17 -42 65 -86 l65 -60 0 -68 c0 -77 -8
-110 -21 -88 -5 7 -5 46 -2 87 5 55 3 72 -5 67 -7 -4 -12 -15 -12 -24 0 -13
-2 -14 -8 -4 -5 8 -16 10 -28 6 -45 -17 -45 -60 -2 -110 22 -24 29 -39 20 -42
-6 -2 -12 -11 -12 -20 0 -14 -2 -14 -9 -3 -16 25 -30 1 -29 -52 1 -58 11 -91
33 -113 8 -9 15 -24 15 -33 0 -10 10 -31 21 -45 19 -24 20 -32 11 -64 -6 -21
-14 -55 -18 -77 -8 -51 -11 -54 -24 -20 -8 20 -8 37 0 58 12 36 -4 111 -23
104 -7 -3 -11 -10 -10 -16 2 -6 -1 -11 -6 -11 -6 0 -13 -21 -17 -47 -7 -44 -8
-45 -13 -19 -8 41 -25 35 -29 -10 -2 -26 2 -41 18 -57 46 -46 90 -130 90 -172
0 -40 22 -86 35 -74 3 4 7 17 8 30 1 13 10 33 19 44 59 68 68 75 98 75 40 0
42 30 3 31 -27 0 -27 1 6 13 47 17 52 36 9 37 -18 0 -27 3 -20 6 16 6 16 33
-1 33 -22 0 -53 -41 -81 -103 -27 -62 -49 -77 -36 -24 11 47 38 107 48 107 25
0 91 74 112 125 25 61 21 78 -10 50 -23 -20 -26 -14 -8 15 16 25 4 37 -19 19
-15 -11 -16 -11 -5 1 13 15 17 60 4 60 -4 0 -18 -17 -30 -37 -12 -21 -22 -32
-22 -25 0 17 37 89 50 97 6 3 17 20 25 36 18 34 11 57 -11 38 -12 -9 -12 -6 1
17 10 20 11 30 4 33 -6 2 -15 -2 -19 -9 -5 -8 -9 -8 -13 4 -3 8 -2 18 3 21 5
3 17 21 25 39 14 29 14 37 3 55 -7 11 -18 20 -25 18 -16 -3 -16 8 2 43 9 17
22 30 30 30 18 0 58 42 47 49 -5 3 -11 14 -15 24 -6 16 -9 16 -44 -6 -42 -26
-73 -25 -73 3 0 16 52 50 78 50 13 0 39 41 48 74 3 14 22 37 41 52 19 14 32
29 29 32 -3 3 -1 11 5 18 17 21 -10 28 -32 8 -11 -11 -29 -28 -40 -39 l-21
-20 12 23 c6 13 9 27 5 30 -8 8 -65 -57 -65 -74 0 -7 -6 -14 -14 -17 -8 -3
-16 -14 -19 -24 -2 -10 -3 -5 -1 10 2 16 13 40 24 54 13 16 20 41 20 67 0 32
5 45 22 56 52 35 87 90 58 90 -5 0 -10 14 -10 31 0 35 -23 36 -28 2 -2 -12
-12 -29 -23 -39 -20 -18 -21 -18 -8 9 7 15 9 30 5 34 -14 15 -39 -28 -44 -76
-2 -28 -8 -54 -13 -57 -17 -10 -20 42 -4 79 13 32 14 45 4 75 -18 59 -29 61
-30 7z m1 -105 c0 -5 -4 -10 -9 -10 -6 0 -13 5 -16 10 -3 6 1 10 9 10 9 0 16
-4 16 -10z m-15 -57 c18 -41 24 -65 19 -90 -9 -50 -21 -48 -33 5 -15 69 -24
142 -17 142 3 0 18 -25 31 -57z m-42 -62 c-9 -13 -21 18 -16 39 7 25 7 25 13
-5 4 -16 5 -32 3 -34z m69 -88 c-3 -16 -7 -22 -10 -15 -4 13 4 42 11 42 2 0 2
-12 -1 -27z m74 -62 c-19 -21 -56 -34 -56 -20 0 5 9 18 20 29 11 11 20 25 20
32 0 8 6 6 17 -5 16 -15 16 -18 -1 -36z m-109 -123 c-2 -13 -4 -5 -4 17 -1 22
1 32 4 23 2 -10 2 -28 0 -40z m30 -123 c-7 -13 -14 -20 -15 -14 -2 5 2 16 8
24 18 21 20 18 7 -10z m-93 -49 c-3 -8 -12 -12 -21 -9 -12 5 -12 7 -1 14 20
13 28 11 22 -5z m126 -21 c0 -8 -8 -19 -19 -24 -16 -9 -17 -7 -13 14 5 27 32
35 32 10z m-37 -86 c-14 -26 -18 -30 -21 -16 -2 10 4 27 14 38 24 27 27 18 7
-22z m-46 -111 c-2 -24 -4 -7 -4 37 0 44 2 63 4 43 2 -21 2 -57 0 -80z m-30
45 c-3 -10 -5 -2 -5 17 0 19 2 27 5 18 2 -10 2 -26 0 -35z m106 18 c2 -10 1
-25 -4 -32 -5 -8 -9 -9 -9 -4 0 6 -3 20 -6 33 -4 12 -2 22 4 22 5 0 12 -9 15
-19z m-123 -26 c0 -5 -5 -3 -10 5 -5 8 -10 20 -10 25 0 6 5 3 10 -5 5 -8 10
-19 10 -25z m0 -32 c0 -5 7 -30 15 -58 9 -27 11 -45 6 -40 -5 6 -14 27 -21 48
-6 20 -16 37 -21 37 -5 0 -9 5 -9 10 0 6 7 10 15 10 8 0 15 -3 15 -7z m67 -25
c-3 -8 -6 -5 -6 6 -1 11 2 17 5 13 3 -3 4 -12 1 -19z m42 -134 c1 -30 -41 -85
-55 -71 -4 3 4 39 17 79 20 62 24 69 30 48 4 -14 7 -39 8 -56z m-62 4 c-3 -8
-6 -5 -6 6 -1 11 2 17 5 13 3 -3 4 -12 1 -19z m82 -55 c-13 -12 -26 -23 -31
-23 -4 0 1 9 12 20 11 11 20 32 21 48 l0 27 10 -24 c8 -19 5 -29 -12 -48z
m-136 -153 c-8 -8 -53 50 -53 69 0 36 14 30 36 -16 12 -27 20 -50 17 -53z
m114 20 c-1 -11 -7 -22 -14 -24 -9 -4 -10 0 -1 19 14 30 17 31 15 5z m-90 -12
c-3 -8 -6 -5 -6 6 -1 11 2 17 5 13 3 -3 4 -12 1 -19z"/>
<path d="M3440 870 c-11 -7 -4 -10 28 -10 23 0 42 5 42 10 0 13 -50 13 -70 0z"/>
<path d="M1940 825 c0 -9 9 -15 25 -15 16 0 25 6 25 15 0 9 -9 15 -25 15 -16
0 -25 -6 -25 -15z"/>
<path d="M178 811 c-36 -3 -70 -10 -74 -14 -10 -10 14 -27 37 -27 9 0 22 -7
29 -15 10 -12 37 -15 127 -15 167 0 196 23 77 60 -68 20 -80 21 -196 11z"/>
<path d="M2287 774 c-16 -16 -5 -24 34 -24 28 0 39 4 37 13 -5 13 -60 22 -71
11z"/>
<path d="M2411 746 c-11 -13 -11 -17 0 -21 20 -6 80 8 82 20 3 17 -68 18 -82
1z"/>
<path d="M2080 698 c-52 -7 -69 -14 -87 -36 -24 -29 -30 -67 -12 -78 6 -4 44
-12 83 -19 78 -13 281 -4 299 14 6 6 3 19 -11 38 -32 45 -54 60 -111 77 -60
18 -66 18 -161 4z"/>
<path d="M866 673 c-4 -5 -50 -10 -102 -13 -90 -5 -96 -7 -127 -38 -37 -37
-31 -60 19 -74 48 -14 204 -9 237 7 17 8 36 15 42 15 7 0 18 6 24 14 6 7 32
16 57 19 83 9 80 43 -6 67 -41 12 -133 13 -144 3z"/>
<path d="M1230 535 c0 -11 49 -94 50 -84 0 4 -11 27 -25 50 -14 24 -25 40 -25
34z"/>
<path d="M1280 437 c0 -9 51 -87 57 -87 5 0 -35 69 -49 85 -4 5 -8 6 -8 2z"/>
<path d="M1492 331 c9 -15 8 -24 -5 -45 -14 -20 -14 -24 -2 -20 27 11 31 84 4
84 -5 0 -4 -9 3 -19z"/>
<path d="M1350 330 c0 -5 5 -10 11 -10 5 0 7 5 4 10 -3 6 -8 10 -11 10 -2 0
-4 -4 -4 -10z"/>
<path d="M1390 290 c0 -5 5 -10 11 -10 5 0 7 5 4 10 -3 6 -8 10 -11 10 -2 0
-4 -4 -4 -10z"/>
<path d="M1430 270 c8 -5 20 -10 25 -10 6 0 3 5 -5 10 -8 5 -19 10 -25 10 -5
0 -3 -5 5 -10z"/>
<path d="M2007 220 c3 -11 9 -17 15 -14 5 3 4 12 -3 20 -16 19 -18 18 -12 -6z"/>
<path d="M2018 180 c-2 -6 -21 -17 -43 -25 -22 -8 -32 -14 -22 -15 23 0 77 28
77 40 0 13 -7 13 -12 0z"/>
<path d="M1688 153 c7 -3 16 -2 19 1 4 3 -2 6 -13 5 -11 0 -14 -3 -6 -6z"/>
<path d="M1798 133 c23 -2 61 -2 85 0 23 2 4 4 -43 4 -47 0 -66 -2 -42 -4z"/>
</g>
</svg>
